<svg width="16" height="16" viewBox="0 0 16 16" fill="none" xmlns="http://www.w3.org/2000/svg">
<path d="M14.8358 14.3639L14.3643 14.8353C14.104 15.0956 13.6819 15.0956 13.4215 14.8353L8.00037 9.41408L2.57917 14.8352C2.31887 15.0956 1.89675 15.0956 1.6364 14.8352L1.16499 14.3638C0.904639 14.1035 0.904639 13.6814 1.16499 13.421L6.58617 7.99988L1.16499 2.57868C0.904639 2.31838 0.904639 1.89626 1.16499 1.63591L1.63639 1.16451C1.89674 0.90416 2.31887 0.90416 2.57917 1.16451L8.00037 6.58568L13.4215 1.1645C13.6819 0.904151 14.104 0.904151 14.3643 1.1645L14.8358 1.6359C15.0961 1.89625 15.0961 2.31838 14.8358 2.57868L9.41457 7.99988L14.8358 13.421C15.0961 13.6814 15.0961 14.1035 14.8358 14.3639Z" fill="#962715"/>
</svg>
